<?xml version="1.0" standalone="no"?>
<!DOCTYPE svg PUBLIC "-//W3C//DTD SVG 20010904//EN"
 "http://www.w3.org/TR/2001/REC-SVG-20010904/DTD/svg10.dtd">
<svg version="1.0" xmlns="http://www.w3.org/2000/svg"
 width="900.000000pt" height="900.000000pt" viewBox="0 0 900.000000 900.000000"
 preserveAspectRatio="xMidYMid meet">

<g transform="translate(0.000000,900.000000) scale(0.100000,-0.100000)"
fill="#000000" stroke="none">
<path d="M4225 8805 c-5 -3 -68 -9 -140 -15 -178 -14 -252 -24 -375 -49 -177
-36 -254 -54 -405 -98 -689 -199 -1283 -542 -1787 -1031 -363 -353 -624 -707
-840 -1137 -151 -299 -258 -588 -336 -900 -54 -216 -60 -246 -92 -458 -40
-258 -51 -684 -26 -967 49 -541 176 -1009 406 -1495 394 -835 1121 -1572 1947
-1975 895 -437 1826 -556 2818 -361 307 60 710 203 1049 373 824 411 1515
1114 1911 1943 155 324 274 665 334 960 7 33 15 69 17 80 11 48 43 247 53 325
26 208 31 294 31 530 0 339 -23 551 -97 905 -14 66 -29 138 -33 160 -17 79
-99 333 -155 480 -72 189 -229 514 -325 670 -349 572 -816 1049 -1373 1404
-146 93 -188 116 -347 196 -503 252 -1014 401 -1530 446 -121 10 -688 22 -705
14z m-1992 -1772 c54 -58 159 -175 542 -603 110 -123 268 -298 350 -390 83
-91 258 -287 390 -435 426 -477 597 -668 685 -765 48 -52 133 -149 189 -215
57 -66 109 -123 117 -128 9 -5 37 21 91 84 115 135 151 176 458 520 278 313
738 824 929 1034 56 61 153 169 216 240 63 70 142 158 175 194 33 37 152 169
264 294 184 206 206 227 235 227 18 0 37 -5 44 -12 9 -9 12 -525 12 -2259 l0
-2246 -31 -7 c-46 -9 -882 -7 -896 2 -10 6 -13 251 -15 1097 -2 600 -7 1096
-11 1103 -10 15 -71 -40 -151 -134 -28 -33 -82 -97 -121 -141 -38 -44 -109
-126 -157 -184 -302 -363 -1012 -1159 -1033 -1159 -20 0 -107 96 -530 580
-137 157 -294 337 -350 400 -55 63 -157 182 -225 264 -239 284 -353 410 -363
399 -4 -3 -7 -505 -7 -1115 l0 -1108 -32 0 c-241 -1 -858 -2 -875 -1 l-23 1 0
2253 c0 1240 3 2257 7 2260 3 4 19 7 34 7 20 0 41 -15 82 -57z"/>
</g>
</svg>
